<?xml version="1.0" encoding="UTF-8" standalone="no"?>
<!-- Created with Inkscape (http://www.inkscape.org/) -->

<svg
   width="512"
   height="512"
   viewBox="0 0 512 512"
   version="1.1"
   id="svg1"
   inkscape:version="1.4 (86a8ad7, 2024-10-11)"
   sodipodi:docname="Swush_Icon.svg"
   xmlns:inkscape="http://www.inkscape.org/namespaces/inkscape"
   xmlns:sodipodi="http://sodipodi.sourceforge.net/DTD/sodipodi-0.dtd"
   xmlns="http://www.w3.org/2000/svg"
   xmlns:svg="http://www.w3.org/2000/svg">
  <sodipodi:namedview
     id="namedview1"
     pagecolor="#ffffff"
     bordercolor="#000000"
     borderopacity="0.25"
     inkscape:showpageshadow="2"
     inkscape:pageopacity="0.0"
     inkscape:pagecheckerboard="0"
     inkscape:deskcolor="#d1d1d1"
     inkscape:document-units="px"
     inkscape:zoom="0.79589844"
     inkscape:cx="268.87853"
     inkscape:cy="157.68344"
     inkscape:window-width="1920"
     inkscape:window-height="1017"
     inkscape:window-x="-8"
     inkscape:window-y="-8"
     inkscape:window-maximized="1"
     inkscape:current-layer="layer1" />
  <defs
     id="defs1" />
  <g
     inkscape:label="Ebene 1"
     inkscape:groupmode="layer"
     id="layer1">
    <rect
       style="fill:#0076ff;stroke-width:59.782;fill-opacity:1"
       id="rect1"
       width="512"
       height="512"
       x="0"
       y="0"
       ry="63.967567" />
    <path
       d="m 92.99049,427.96361 q 0,5.34847 -2.3771,10.22153 -2.258245,4.7542 -6.41817,8.4387 -4.159925,3.68451 -9.864965,5.94275 -5.70504,2.13939 -12.598631,2.13939 -6.18046,0 -11.17237,-0.71313 -4.873055,-0.71313 -9.27069,-2.25824 -4.27878,-1.54512 -8.31985,-3.92222 -3.922216,-2.49595 -8.200996,-5.94275 l 13.074051,-13.1929 q 5.70504,4.7542 11.17237,6.77473 5.46733,1.90168 11.8855,1.90168 2.61481,0 4.873055,-0.71313 2.377101,-0.83198 4.041071,-2.13939 1.782825,-1.3074 2.733665,-3.09023 1.069695,-1.78282 1.069695,-3.92221 0,-2.25825 -0.831985,-4.04107 -0.831985,-1.78283 -2.971375,-3.4468 -2.13939,-1.66397 -5.942751,-3.32794 -3.80336,-1.78282 -9.74611,-3.92221 -5.22962,-1.90168 -10.102675,-4.27878 -4.7542,-2.49596 -8.438705,-5.94275 -3.56565,-3.4468 -5.823896,-8.08214 -2.13939,-4.63535 -2.13939,-10.93467 0,-6.0616 2.3771,-11.17237 2.495956,-5.11076 6.655881,-8.67641 4.27878,-3.68451 9.864965,-5.70504 5.70504,-2.02054 12.242065,-2.02054 10.934661,0 18.422526,2.85252 7.487865,2.85252 13.31176,8.31985 l -12.83634,12.9552 q -3.56565,-3.4468 -7.963285,-5.22962 -4.397636,-1.90168 -10.340386,-1.90168 -2.733665,0 -5.110765,0.83198 -2.258245,0.83199 -3.922215,2.25825 -1.66397,1.3074 -2.733665,3.20908 -0.95084,1.78283 -0.95084,3.80336 0,2.25825 0.95084,4.15993 0.95084,1.78282 3.209085,3.56565 2.258245,1.66397 5.94275,3.4468 3.80336,1.66397 9.389545,3.6845 7.131301,2.49596 12.242066,5.46733 5.110765,2.97138 8.31985,6.53703 3.209085,3.56565 4.7542,8.08214 1.545115,4.39763 1.545115,9.98382 z m 134.54376,-70.12446 -30.9023,95.08401 h -16.16428 l -17.47169,-58.71437 -17.59054,58.71437 H 129.24116 L 98.338862,357.83915 h 19.492218 l 20.0865,61.44804 17.35283,-61.44804 h 15.21344 l 17.35283,61.5669 20.3242,-61.5669 z m 93.42008,0 v 51.58308 q 0,9.5084 -2.85252,17.70939 -2.85252,8.201 -8.31985,14.38146 -5.34848,6.0616 -13.19291,9.62725 -7.72557,3.4468 -17.70939,3.4468 -9.74611,0 -17.59054,-3.4468 -7.84443,-3.44679 -13.43062,-9.38954 -5.46733,-6.06161 -8.43871,-14.14375 -2.97137,-8.20099 -2.97137,-17.59054 v -52.17735 h 18.42253 v 52.29621 q 0,5.46733 1.54511,10.34038 1.54512,4.7542 4.51649,8.31985 2.97138,3.56565 7.36901,5.70504 4.51649,2.02054 10.22153,2.02054 6.06161,0 10.45924,-1.90168 4.51649,-2.02054 7.36901,-5.46733 2.97138,-3.56565 4.39764,-8.31985 1.54511,-4.7542 1.54511,-10.45924 v -52.53392 z m 78.91964,70.12446 q 0,5.34847 -2.3771,10.22153 -2.25824,4.7542 -6.41817,8.4387 -4.15992,3.68451 -9.86496,5.94275 -5.70504,2.13939 -12.59863,2.13939 -6.18046,0 -11.17237,-0.71313 -4.87306,-0.71313 -9.27069,-2.25824 -4.27878,-1.54512 -8.31985,-3.92222 -3.92222,-2.49595 -8.201,-5.94275 l 13.07405,-13.1929 q 5.70504,4.7542 11.17237,6.77473 5.46733,1.90168 11.8855,1.90168 2.61481,0 4.87306,-0.71313 2.3771,-0.83198 4.04107,-2.13939 1.78282,-1.3074 2.73366,-3.09023 1.0697,-1.78282 1.0697,-3.92221 0,-2.25825 -0.83199,-4.04107 -0.83198,-1.78283 -2.97137,-3.4468 -2.13939,-1.66397 -5.94275,-3.32794 -3.80336,-1.78282 -9.74611,-3.92221 -5.22962,-1.90168 -10.10268,-4.27878 -4.7542,-2.49596 -8.4387,-5.94275 -3.56565,-3.4468 -5.8239,-8.08214 -2.13939,-4.63535 -2.13939,-10.93467 0,-6.0616 2.3771,-11.17237 2.49596,-5.11076 6.65588,-8.67641 4.27878,-3.68451 9.86497,-5.70504 5.70504,-2.02054 12.24206,-2.02054 10.93466,0 18.42253,2.85252 7.48786,2.85252 13.31176,8.31985 l -12.83634,12.9552 q -3.56565,-3.4468 -7.96329,-5.22962 -4.39763,-1.90168 -10.34038,-1.90168 -2.73367,0 -5.11077,0.83198 -2.25824,0.83199 -3.92221,2.25825 -1.66397,1.3074 -2.73367,3.20908 -0.95084,1.78283 -0.95084,3.80336 0,2.25825 0.95084,4.15993 0.95084,1.78282 3.20909,3.56565 2.25824,1.66397 5.94275,3.4468 3.80336,1.66397 9.38954,3.6845 7.1313,2.49596 12.24207,5.46733 5.11076,2.97138 8.31985,6.53703 3.20908,3.56565 4.7542,8.08214 1.54511,4.39763 1.54511,9.98382 z m 87.35832,24.95955 h -18.42253 v -42.07467 h -37.43932 v 42.07467 h -18.42253 v -94.96515 h 18.42253 v 37.67704 h 37.43932 v -37.67704 h 18.42253 z"
       id="text1"
       style="font-size:118.855px;font-family:'Keep Calm';-inkscape-font-specification:'Keep Calm, Normal';text-align:center;text-anchor:middle;fill:#ffffff;stroke-width:166.533"
       aria-label="SWUSH" />
  </g>
</svg>
